<?xml version="1.0" encoding="UTF-8" standalone="no"?><svg width="165" height="23" viewBox="0 0 165 23" fill="none" xmlns="http://www.w3.org/2000/svg">
<path d="M13.472 23C12.1067 23 10.9013 22.7013 9.856 22.104C8.832 21.4853 8.02133 20.664 7.424 19.64C6.848 18.616 6.56 17.4747 6.56 16.216V5.08H0.48V0.599998H17.984V5.08H11.936V16.696C11.936 17.1867 12.1067 17.6133 12.448 17.976C12.7893 18.3387 13.216 18.52 13.728 18.52H15.488V23H13.472ZM26.4048 23C25.1461 23 24.0048 22.712 22.9808 22.136C21.9568 21.5387 21.1354 20.7493 20.5168 19.768C19.9194 18.7653 19.6208 17.6347 19.6208 16.376C19.6208 15.4373 19.8234 14.5627 20.2288 13.752C20.6554 12.92 21.2208 12.2053 21.9248 11.608C21.2421 11.032 20.6981 10.3493 20.2928 9.56C19.9088 8.77067 19.7168 7.93867 19.7168 7.064C19.7168 5.82667 20.0154 4.728 20.6128 3.768C21.2101 2.78667 22.0101 2.01867 23.0128 1.464C24.0154 0.887999 25.1248 0.599998 26.3408 0.599998H35.7808V5.112L27.1728 5.08C26.7674 5.08 26.3941 5.176 26.0528 5.368C25.7114 5.56 25.4341 5.816 25.2208 6.136C25.0288 6.456 24.9328 6.82933 24.9328 7.256C24.9328 7.66133 25.0288 8.03467 25.2208 8.376C25.4341 8.696 25.7114 8.952 26.0528 9.144C26.3941 9.31467 26.7674 9.4 27.1728 9.4H34.6928V13.88H27.3328C26.8848 13.88 26.4794 13.9867 26.1168 14.2C25.7541 14.4133 25.4661 14.6907 25.2528 15.032C25.0394 15.3733 24.9328 15.768 24.9328 16.216C24.9328 16.6427 25.0394 17.0373 25.2528 17.4C25.4661 17.7413 25.7541 18.008 26.1168 18.2C26.4794 18.392 26.8848 18.488 27.3328 18.488H35.7808V23H26.4048ZM49.8633 23C48.0286 22.9787 46.3753 22.68 44.9033 22.104C43.4313 21.528 42.1833 20.7387 41.1593 19.736C40.1353 18.7333 39.3459 17.56 38.7913 16.216C38.2366 14.8507 37.9593 13.3787 37.9593 11.8C37.9593 10.2213 38.2366 8.76 38.7913 7.416C39.3459 6.05067 40.1353 4.86667 41.1593 3.864C42.2046 2.86133 43.4526 2.072 44.9033 1.496C46.3753 0.919998 48.0286 0.621332 49.8633 0.599998H53.3193V5.08H49.9913C48.9886 5.10133 48.0713 5.28267 47.2393 5.624C46.4286 5.96533 45.7246 6.43467 45.1273 7.032C44.5513 7.62933 44.1033 8.33333 43.7833 9.144C43.4846 9.95467 43.3353 10.84 43.3353 11.8C43.3353 12.76 43.4846 13.6453 43.7833 14.456C44.1033 15.2667 44.5513 15.9707 45.1273 16.568C45.7246 17.1653 46.4286 17.6347 47.2393 17.976C48.0713 18.3173 48.9886 18.4987 49.9913 18.52H53.3193V23H49.8633ZM56.3583 23V0.599998H61.7343V9.4H70.4703V0.599998H75.8463V23H70.4703V13.88H61.7343V23H56.3583ZM98.7293 23C96.9799 22.9573 95.4013 22.648 93.9933 22.072C92.6066 21.4747 91.4013 20.6747 90.3773 19.672C89.3746 18.648 88.5959 17.464 88.0413 16.12C87.5079 14.776 87.2413 13.336 87.2413 11.8C87.2413 10.264 87.5079 8.824 88.0413 7.48C88.5959 6.136 89.3746 4.96267 90.3773 3.96C91.4013 2.936 92.6066 2.12533 93.9933 1.528C95.4013 0.930665 96.9799 0.621332 98.7293 0.599998H101.897V3.96H98.8253C97.6946 3.98133 96.6599 4.19467 95.7213 4.6C94.7826 4.984 93.9613 5.528 93.2573 6.232C92.5746 6.936 92.0413 7.768 91.6573 8.728C91.2733 9.66667 91.0813 10.6907 91.0813 11.8C91.0813 12.9093 91.2733 13.944 91.6573 14.904C92.0413 15.8427 92.5746 16.664 93.2573 17.368C93.9613 18.072 94.7826 18.6267 95.7213 19.032C96.6599 19.416 97.6946 19.608 98.8253 19.608H101.897V23H98.7293ZM103.157 23L110.613 2.904C110.976 1.98667 111.498 1.31467 112.181 0.887999C112.864 0.439999 113.642 0.216 114.517 0.216C115.413 0.216 116.202 0.429333 116.885 0.855999C117.589 1.28267 118.112 1.95467 118.453 2.872L125.941 23H121.749L120.021 18.04H108.949L107.157 23H103.157ZM110.101 14.648H118.869L115.285 4.184C115.2 3.97067 115.093 3.81067 114.965 3.704C114.858 3.59733 114.72 3.544 114.549 3.544C114.378 3.544 114.24 3.608 114.133 3.736C114.026 3.84267 113.941 3.992 113.877 4.184L110.101 14.648ZM127.836 23V0.599998H137.756C139.185 0.599998 140.487 0.919999 141.66 1.56C142.855 2.17867 143.804 3.05333 144.508 4.184C145.212 5.31467 145.564 6.62667 145.564 8.12C145.564 9.61333 145.191 10.936 144.444 12.088C143.719 13.2187 142.748 14.0933 141.532 14.712L143.74 18.904C143.868 19.1387 144.017 19.32 144.188 19.448C144.359 19.5547 144.583 19.608 144.86 19.608H146.748V23H144.284C143.409 23 142.631 22.7867 141.948 22.36C141.265 21.912 140.721 21.3253 140.316 20.6L137.692 15.576C137.479 15.5973 137.255 15.608 137.02 15.608C136.807 15.608 136.593 15.608 136.38 15.608H131.644V23H127.836ZM131.644 12.248H137.276C138.087 12.248 138.833 12.088 139.516 11.768C140.199 11.448 140.732 10.9787 141.116 10.36C141.521 9.72 141.724 8.97333 141.724 8.12C141.724 7.24533 141.521 6.49867 141.116 5.88C140.711 5.26133 140.177 4.792 139.516 4.472C138.855 4.13067 138.119 3.96 137.308 3.96H131.644V12.248ZM155.154 23C153.917 23 152.807 22.712 151.826 22.136C150.845 21.5387 150.066 20.7493 149.49 19.768C148.935 18.7653 148.658 17.6667 148.658 16.472C148.658 15.5333 148.871 14.648 149.298 13.816C149.746 12.9627 150.365 12.248 151.154 11.672C150.365 11.096 149.757 10.4027 149.33 9.592C148.903 8.76 148.69 7.896 148.69 7C148.69 5.80533 148.967 4.728 149.522 3.768C150.098 2.808 150.866 2.04 151.826 1.464C152.786 0.887999 153.853 0.599998 155.026 0.599998H164.05V3.992H155.442C154.909 3.992 154.418 4.13067 153.97 4.408C153.522 4.664 153.159 5.016 152.882 5.464C152.626 5.912 152.498 6.424 152.498 7C152.498 7.512 152.637 7.992 152.914 8.44C153.191 8.888 153.554 9.25067 154.002 9.528C154.45 9.784 154.951 9.912 155.506 9.912H162.93V13.304H155.698C155.058 13.304 154.493 13.4533 154.002 13.752C153.511 14.0507 153.127 14.4453 152.85 14.936C152.594 15.4053 152.466 15.928 152.466 16.504C152.466 17.0587 152.594 17.5813 152.85 18.072C153.127 18.5413 153.501 18.9253 153.97 19.224C154.461 19.5013 155.015 19.64 155.634 19.64H164.05V23H155.154Z" fill="white"/>
</svg>
