<?xml version="1.0" encoding="UTF-8" standalone="no"?><svg width="43" height="28" viewBox="0 0 43 28" fill="none" xmlns="http://www.w3.org/2000/svg">
<path d="M16.84 28C15.1333 28 13.6267 27.6267 12.32 26.88C11.04 26.1067 10.0267 25.08 9.28 23.8C8.56 22.52 8.2 21.0933 8.2 19.52V5.6H0.6V-1.90735e-06H22.48V5.6H14.92V20.12C14.92 20.7333 15.1333 21.2667 15.56 21.72C15.9867 22.1733 16.52 22.4 17.16 22.4H19.36V28H16.84ZM37.915 28C35.6217 27.9733 33.555 27.6 31.715 26.88C29.875 26.16 28.315 25.1733 27.035 23.92C25.755 22.6667 24.7683 21.2 24.075 19.52C23.3817 17.8133 23.035 15.9733 23.035 14C23.035 12.0267 23.3817 10.2 24.075 8.52C24.7683 6.81333 25.755 5.33333 27.035 4.08C28.3417 2.82666 29.9017 1.84 31.715 1.12C33.555 0.399998 35.6217 0.0266644 37.915 -1.90735e-06H42.235V5.6H38.075C36.8217 5.62667 35.675 5.85333 34.635 6.28C33.6217 6.70667 32.7417 7.29333 31.995 8.04C31.275 8.78667 30.715 9.66667 30.315 10.68C29.9417 11.6933 29.755 12.8 29.755 14C29.755 15.2 29.9417 16.3067 30.315 17.32C30.715 18.3333 31.275 19.2133 31.995 19.96C32.7417 20.7067 33.6217 21.2933 34.635 21.72C35.675 22.1467 36.8217 22.3733 38.075 22.4H42.235V28H37.915Z" fill="white"/>
</svg>
